<mxfile host="Electron" agent="Mozilla/5.0 (Windows NT 10.0; Win64; x64) AppleWebKit/537.36 (KHTML, like Gecko) draw.io/26.0.4 Chrome/128.0.6613.186 Electron/32.2.5 Safari/537.36" version="26.0.4">
  <diagram name="Seite-1" id="EGFpPbwpN3NIDaKOlWR-">
    <mxGraphModel dx="576" dy="337" grid="1" gridSize="10" guides="1" tooltips="1" connect="1" arrows="1" fold="1" page="1" pageScale="1" pageWidth="827" pageHeight="1169" math="0" shadow="0">
      <root>
        <mxCell id="0" />
        <mxCell id="1" parent="0" />
        <mxCell id="RnyJOvgmjs05vStgaRe2-1" value="Customer" style="swimlane;whiteSpace=wrap;html=1;" vertex="1" parent="1">
          <mxGeometry x="390" y="70" width="230" height="360" as="geometry" />
        </mxCell>
        <mxCell id="WsScY0pKGyDFz_iQMc6H-1" value="choose pay-interval" style="rounded=1;whiteSpace=wrap;html=1;" parent="RnyJOvgmjs05vStgaRe2-1" vertex="1">
          <mxGeometry x="50" y="70" width="120" height="60" as="geometry" />
        </mxCell>
        <mxCell id="ZYwUiXDEwUgPDPiaext9-1" value="" style="shape=ellipse;html=1;fillColor=strokeColor;strokeWidth=2;verticalLabelPosition=bottom;verticalAlignment=top;perimeter=ellipsePerimeter;" parent="RnyJOvgmjs05vStgaRe2-1" vertex="1">
          <mxGeometry x="190" y="90" width="20" height="20" as="geometry" />
        </mxCell>
        <mxCell id="WsScY0pKGyDFz_iQMc6H-2" style="edgeStyle=orthogonalEdgeStyle;rounded=0;orthogonalLoop=1;jettySize=auto;html=1;entryX=1;entryY=0.5;entryDx=0;entryDy=0;" parent="RnyJOvgmjs05vStgaRe2-1" source="ZYwUiXDEwUgPDPiaext9-1" target="WsScY0pKGyDFz_iQMc6H-1" edge="1">
          <mxGeometry relative="1" as="geometry">
            <mxPoint x="160" y="100" as="targetPoint" />
          </mxGeometry>
        </mxCell>
        <mxCell id="RnyJOvgmjs05vStgaRe2-21" value="pay bill" style="whiteSpace=wrap;html=1;rounded=1;" vertex="1" parent="RnyJOvgmjs05vStgaRe2-1">
          <mxGeometry x="23" y="280" width="120" height="60" as="geometry" />
        </mxCell>
        <mxCell id="RnyJOvgmjs05vStgaRe2-23" value="" style="html=1;shape=mxgraph.sysml.actFinal;strokeWidth=2;verticalLabelPosition=bottom;verticalAlignment=top;" vertex="1" parent="RnyJOvgmjs05vStgaRe2-1">
          <mxGeometry x="180" y="300" width="20" height="20" as="geometry" />
        </mxCell>
        <mxCell id="RnyJOvgmjs05vStgaRe2-24" style="edgeStyle=orthogonalEdgeStyle;rounded=0;orthogonalLoop=1;jettySize=auto;html=1;entryX=0;entryY=0.5;entryDx=0;entryDy=0;entryPerimeter=0;" edge="1" parent="RnyJOvgmjs05vStgaRe2-1" source="RnyJOvgmjs05vStgaRe2-21" target="RnyJOvgmjs05vStgaRe2-23">
          <mxGeometry relative="1" as="geometry" />
        </mxCell>
        <mxCell id="RnyJOvgmjs05vStgaRe2-4" value="Employee" style="swimlane;whiteSpace=wrap;html=1;" vertex="1" parent="1">
          <mxGeometry x="130" y="70" width="260" height="360" as="geometry" />
        </mxCell>
        <mxCell id="RnyJOvgmjs05vStgaRe2-11" style="edgeStyle=orthogonalEdgeStyle;rounded=0;orthogonalLoop=1;jettySize=auto;html=1;entryX=1;entryY=0.5;entryDx=0;entryDy=0;" edge="1" parent="RnyJOvgmjs05vStgaRe2-4" source="RnyJOvgmjs05vStgaRe2-2" target="RnyJOvgmjs05vStgaRe2-10">
          <mxGeometry relative="1" as="geometry" />
        </mxCell>
        <mxCell id="RnyJOvgmjs05vStgaRe2-12" value="[monthly]" style="edgeLabel;html=1;align=center;verticalAlign=middle;resizable=0;points=[];" vertex="1" connectable="0" parent="RnyJOvgmjs05vStgaRe2-11">
          <mxGeometry x="0.2549" y="-1" relative="1" as="geometry">
            <mxPoint x="14" y="1" as="offset" />
          </mxGeometry>
        </mxCell>
        <mxCell id="RnyJOvgmjs05vStgaRe2-13" style="edgeStyle=orthogonalEdgeStyle;rounded=0;orthogonalLoop=1;jettySize=auto;html=1;entryX=0.5;entryY=0;entryDx=0;entryDy=0;exitX=0.5;exitY=0;exitDx=0;exitDy=0;" edge="1" parent="RnyJOvgmjs05vStgaRe2-4" source="RnyJOvgmjs05vStgaRe2-2" target="RnyJOvgmjs05vStgaRe2-10">
          <mxGeometry relative="1" as="geometry" />
        </mxCell>
        <mxCell id="RnyJOvgmjs05vStgaRe2-14" value="[quarterly]" style="edgeLabel;html=1;align=center;verticalAlign=middle;resizable=0;points=[];" vertex="1" connectable="0" parent="RnyJOvgmjs05vStgaRe2-13">
          <mxGeometry x="0.3739" relative="1" as="geometry">
            <mxPoint x="34" as="offset" />
          </mxGeometry>
        </mxCell>
        <mxCell id="RnyJOvgmjs05vStgaRe2-15" style="edgeStyle=orthogonalEdgeStyle;rounded=0;orthogonalLoop=1;jettySize=auto;html=1;entryX=0.75;entryY=1;entryDx=0;entryDy=0;" edge="1" parent="RnyJOvgmjs05vStgaRe2-4" source="RnyJOvgmjs05vStgaRe2-2" target="RnyJOvgmjs05vStgaRe2-10">
          <mxGeometry relative="1" as="geometry">
            <Array as="points">
              <mxPoint x="220" y="150" />
              <mxPoint x="100" y="150" />
            </Array>
          </mxGeometry>
        </mxCell>
        <mxCell id="RnyJOvgmjs05vStgaRe2-16" value="[at the end]" style="edgeLabel;html=1;align=center;verticalAlign=middle;resizable=0;points=[];" vertex="1" connectable="0" parent="RnyJOvgmjs05vStgaRe2-15">
          <mxGeometry x="0.0216" relative="1" as="geometry">
            <mxPoint as="offset" />
          </mxGeometry>
        </mxCell>
        <mxCell id="RnyJOvgmjs05vStgaRe2-2" value="" style="rhombus;whiteSpace=wrap;html=1;" vertex="1" parent="RnyJOvgmjs05vStgaRe2-4">
          <mxGeometry x="200" y="80" width="40" height="40" as="geometry" />
        </mxCell>
        <mxCell id="RnyJOvgmjs05vStgaRe2-18" value="" style="edgeStyle=orthogonalEdgeStyle;rounded=0;orthogonalLoop=1;jettySize=auto;html=1;" edge="1" parent="RnyJOvgmjs05vStgaRe2-4" source="RnyJOvgmjs05vStgaRe2-10" target="RnyJOvgmjs05vStgaRe2-17">
          <mxGeometry relative="1" as="geometry" />
        </mxCell>
        <mxCell id="RnyJOvgmjs05vStgaRe2-10" value="get period condition" style="rounded=1;whiteSpace=wrap;html=1;" vertex="1" parent="RnyJOvgmjs05vStgaRe2-4">
          <mxGeometry x="10" y="70" width="120" height="60" as="geometry" />
        </mxCell>
        <mxCell id="RnyJOvgmjs05vStgaRe2-20" value="" style="edgeStyle=orthogonalEdgeStyle;rounded=0;orthogonalLoop=1;jettySize=auto;html=1;" edge="1" parent="RnyJOvgmjs05vStgaRe2-4" source="RnyJOvgmjs05vStgaRe2-17" target="RnyJOvgmjs05vStgaRe2-19">
          <mxGeometry relative="1" as="geometry" />
        </mxCell>
        <mxCell id="RnyJOvgmjs05vStgaRe2-17" value="create bill" style="whiteSpace=wrap;html=1;rounded=1;" vertex="1" parent="RnyJOvgmjs05vStgaRe2-4">
          <mxGeometry x="10" y="180" width="120" height="60" as="geometry" />
        </mxCell>
        <mxCell id="RnyJOvgmjs05vStgaRe2-19" value="send bill to customer" style="whiteSpace=wrap;html=1;rounded=1;" vertex="1" parent="RnyJOvgmjs05vStgaRe2-4">
          <mxGeometry x="10" y="280" width="120" height="60" as="geometry" />
        </mxCell>
        <mxCell id="RnyJOvgmjs05vStgaRe2-3" style="edgeStyle=orthogonalEdgeStyle;rounded=0;orthogonalLoop=1;jettySize=auto;html=1;entryX=1;entryY=0.5;entryDx=0;entryDy=0;exitX=0;exitY=0.5;exitDx=0;exitDy=0;" edge="1" parent="1" source="WsScY0pKGyDFz_iQMc6H-1" target="RnyJOvgmjs05vStgaRe2-2">
          <mxGeometry relative="1" as="geometry" />
        </mxCell>
        <mxCell id="RnyJOvgmjs05vStgaRe2-22" value="" style="edgeStyle=orthogonalEdgeStyle;rounded=0;orthogonalLoop=1;jettySize=auto;html=1;" edge="1" parent="1" source="RnyJOvgmjs05vStgaRe2-19" target="RnyJOvgmjs05vStgaRe2-21">
          <mxGeometry relative="1" as="geometry" />
        </mxCell>
      </root>
    </mxGraphModel>
  </diagram>
</mxfile>
